<svg aria-hidden="true" style="position:absolute;width:0;height:0;overflow:hidden" xmlns="http://www.w3.org/2000/svg">
  <defs>
    <symbol id="icon-facebook" viewBox="0 0 32 32">
      <path d="M16 0C7.164 0 0 7.164 0 16s7.164 16 16 16 16-7.164 16-16S24.836 0 16 0zm4 10.667h-1.8c-.717 0-.867.295-.867 1.037v1.629H20L19.721 16h-2.388v9.333h-4V16h-2.667v-2.667h2.667v-3.077c0-2.359 1.241-3.589 4.039-3.589H20v4z"/>
    </symbol>
    <symbol id="icon-telegram" viewBox="0 0 32 32">
      <path d="M16 0c8.836 0 16 7.163 16 16 0 8.836-7.164 16-16 16-8.835 0-16-7.164-16-16C0 7.163 7.165 0 16 0zm4.299 23.828a.929.929 0 0 0 .861.113.904.904 0 0 0 .563-.655c.676-3.176 2.316-11.216 2.931-14.104a.61.61 0 0 0-.201-.591.626.626 0 0 0-.62-.109c-3.261 1.208-13.305 4.976-17.411 6.495a.645.645 0 0 0-.421.623.643.643 0 0 0 .461.593c1.841.551 4.257 1.317 4.257 1.317s1.129 3.411 1.717 5.144a.682.682 0 0 0 .469.448.674.674 0 0 0 .632-.161l2.407-2.272s2.779 2.036 4.355 3.159zm-8.564-6.749 1.307 4.308.291-2.728s5.044-4.551 7.921-7.144c.084-.076.095-.204.025-.293s-.197-.111-.292-.049l-9.252 5.907z"/>
    </symbol>
    <symbol id="icon-github" viewBox="0 0 32 32">
      <path d="M16 0C7.164 0 0 7.164 0 16s7.164 16 16 16 16-7.164 16-16S24.836 0 16 0zm2.957 24.821c-.472.092-.624-.199-.624-.448v-2.561c0-.871-.305-1.439-.641-1.728 2.08-.231 4.264-1.02 4.264-4.605 0-1.02-.364-1.852-.961-2.505.096-.236.416-1.185-.092-2.471 0 0-.783-.251-2.564.956A9.078 9.078 0 0 0 16 11.147a9.015 9.015 0 0 0-2.337.313c-1.783-1.207-2.567-.956-2.567-.956-.505 1.285-.187 2.235-.089 2.469a3.61 3.61 0 0 0-.963 2.505c0 3.576 2.179 4.376 4.252 4.612-.267.233-.508.644-.592 1.248-.533.239-1.884.651-2.716-.776 0 0-.493-.896-1.431-.963 0 0-.911-.012-.064.568 0 0 .613.287 1.036 1.365 0 0 .54 1.667 3.137 1.101v1.737c0 .247-.151.536-.616.449a9.334 9.334 0 1 1 5.906 0z"/>
    </symbol>
  </defs>
</svg>
